<svg width="200" height="25" viewBox="0 0 200 25" fill="none" xmlns="http://www.w3.org/2000/svg">
<path d="M46.6224 9.10737H29.7345L29.1313 9.58993V24.608H33.7755V18.9385L34.1976 18.5164H46.6222C49.7585 18.5164 51.2061 17.672 51.2061 15.5008V12.0629C51.2063 9.95176 49.7586 9.10737 46.6224 9.10737ZM46.6224 14.6562C46.6224 15.6814 45.9589 15.8624 44.4511 15.8624H34.2581L33.7755 15.4403V12.2437L34.1976 11.8215H44.4509C45.8985 11.8215 46.6222 12.0024 46.6222 13.0277L46.6224 14.6562ZM59.7708 11.9421L63.8117 17.8528L63.5705 18.3956H54.6441L52.3522 21.2304H65.6211L66.5861 21.7732L68.6368 24.6079H74.0047L62.2436 8.92642L59.7708 11.9421ZM113.028 21.5922V17.3704L113.51 16.9481H122.497V14.2943H108.263V24.6079H129.252V21.9541H113.57L113.028 21.5922ZM108.263 9.10737H129.433V12.0024H108.263V9.10737ZM84.6803 11.8818H101.749C101.508 9.71051 100.12 9.10737 96.743 9.10737H84.4994C80.6393 9.10737 79.433 9.83117 79.433 12.7864V20.9891C79.433 23.8842 80.6393 24.6683 84.4994 24.6683H96.743C100.181 24.6683 101.508 24.0048 101.628 21.7732H84.6803L84.1977 21.2906V12.2437L84.6803 11.8818ZM17.6718 15.1387H5.30756L4.94565 14.7166V12.0628L5.30756 11.7613H22.0144L22.2556 11.2184C21.7128 9.7708 20.205 9.04716 17.4909 9.04716H5.85033C1.99031 9.04716 0.784017 9.77089 0.784017 12.7262V14.4753C0.784017 17.3704 1.99031 18.1545 5.85033 18.1545H18.2147L18.5765 18.5163V21.2907L18.275 21.7129H0.422113C0.422113 21.7129 0 21.9541 0 22.0145C0.301532 24.0652 1.68877 24.6079 5.00595 24.6079H17.6719C21.5319 24.6079 22.7986 23.8842 22.7986 20.9289V18.8178C22.7985 15.9228 21.5319 15.1387 17.6718 15.1387ZM142.762 9.04708H135.766L135.404 9.7708L143.124 15.4403C144.572 14.5959 146.2 13.7516 147.889 12.9071L142.762 9.04708ZM149.035 19.6623L155.85 24.6079H162.847L163.148 23.9444L153.016 16.5259C151.689 17.5511 150.301 18.5766 149.035 19.6623Z" fill="white"/>
<path d="M141.737 24.6079H135.404L134.861 23.7635C139.143 19.6019 158.323 1.86972 200 0C200 0 165.078 1.2062 141.737 24.6079Z" fill="white"/>
</svg>
